<svg width="20" height="17" viewBox="0 0 20 17" fill="none" xmlns="http://www.w3.org/2000/svg">
<path d="M18.7231 5.7636H17.4383V5.6659C17.4383 4.59464 16.5819 3.72299 15.5294 3.72299H9.62994C9.21323 3.72299 8.83265 3.49042 8.63653 3.11609L7.80536 1.52874C7.47297 0.894253 6.82739 0.5 6.12044 0.5H1.9089C0.856388 0.5 0 1.37165 0 2.44291V14.5571C0 14.746 0.0267268 14.9322 0.0790512 15.1115C0.057218 15.4195 0.143798 15.7257 0.331262 15.9801C0.574439 16.3103 0.946732 16.5 1.35253 16.5H16.3835C16.9467 16.5 17.4504 16.1157 17.6085 15.5659L19.9476 7.42797C20.0617 7.0318 19.9875 6.61494 19.744 6.28429C19.5008 5.95364 19.1285 5.76437 18.7227 5.76437L18.7231 5.7636ZM1.9089 1.29732H6.12082C6.53753 1.29732 6.91811 1.52989 7.11423 1.90421L7.9454 3.49157C8.27779 4.12644 8.92337 4.52069 9.62994 4.52069H15.5294C16.1502 4.52069 16.655 5.03448 16.655 5.66628V5.76398H3.69169C3.12854 5.76398 2.62488 6.14828 2.46677 6.69808L0.782983 12.5559V2.44291C0.782983 1.81111 1.28816 1.29732 1.9089 1.29732ZM19.1963 7.20345L16.8571 15.3418C16.7961 15.5544 16.6015 15.7027 16.3839 15.7027H1.35253C1.19593 15.7027 1.05213 15.6295 0.958025 15.5019C0.863917 15.3743 0.835308 15.213 0.87935 15.0602L3.21851 6.92184C3.27949 6.7092 3.47411 6.56092 3.69169 6.56092H18.7227C18.8793 6.56092 19.0231 6.6341 19.1172 6.76169C19.2113 6.88927 19.2403 7.05019 19.1963 7.20345Z" fill="white"/>
</svg>
