<svg width="66" height="56" viewBox="0 0 66 56" fill="none" xmlns="http://www.w3.org/2000/svg">
<g clip-path="url(#clip0_521_174)">
<path d="M29.8666 13.7875C29.8666 13.7875 29.8579 13.7961 29.8558 13.8025C27.2745 7.25459 22.2801 2.85352 16.6712 2.85352C16.3477 2.85352 16.1148 2.85352 15.7956 2.85566C15.3406 2.85566 14.808 2.94798 15.0711 3.11758C15.3492 3.23995 15.2155 3.17125 15.442 3.23995C21.2062 5.02829 25.5968 10.8119 27.1645 18.7747C27.2012 18.9571 27.2874 19.2234 27.4405 19.2234C27.5936 19.2234 27.695 19.131 27.902 19.0301C28.5231 18.7253 29.0902 18.3818 29.6143 18.0104C29.6768 16.5784 29.763 15.1701 29.8709 13.7875" fill="#F6F6F6"/>
<path fill-rule="evenodd" clip-rule="evenodd" d="M31.5335 1.42796C31.2519 2.84558 30.9966 4.30898 30.7693 5.81445C30.5449 5.80391 30.3187 5.80149 30.0909 5.80745C28.866 5.83965 28.0595 6.07366 27.0589 6.54168C26.9273 6.60394 26.7656 6.70269 26.8432 6.77998C26.9068 6.84329 26.9776 6.84466 27.0794 6.84662C27.1019 6.84705 27.1259 6.84752 27.1516 6.84868C28.4289 6.90878 29.4853 7.18871 30.5047 7.68075C29.8431 12.6689 29.4827 18.0828 29.4827 23.7961C29.4827 31.0246 30.0671 37.8495 31.1022 43.8822C31.1927 44.1656 31.6262 43.9166 31.6262 43.3841C31.6154 36.8448 31.7556 28.3582 33.1983 20.6081C33.795 17.4042 34.5882 14.3529 35.4793 11.4441C36.3255 12.4725 36.9835 13.6492 37.4056 14.9445C37.4358 15.0368 37.4983 15.0669 37.5587 14.9681C37.6212 14.8694 37.6644 14.7277 37.7118 14.5538C39.1954 9.23385 43.9914 5.29435 50.0101 4.72972C50.312 4.69967 50.4738 4.67605 50.7131 4.63741C50.7493 4.63123 50.7844 4.62752 50.8169 4.62409C50.9197 4.61322 50.9961 4.60514 50.9978 4.53007H50.9999C51.0018 4.44241 50.8424 4.40211 50.7039 4.36714C50.6864 4.36271 50.6692 4.35837 50.6527 4.35402C49.5853 4.07278 48.589 3.98047 47.4288 3.98047C43.2798 3.98047 39.5966 5.90621 37.2891 8.88176C37.0506 8.62966 36.8006 8.39043 36.5402 8.16507C37.4936 5.35837 38.5073 2.69094 39.4822 0.152725C39.5512 -0.070549 39.383 0.00244442 39.3118 0.0604098C38.2228 0.977121 35.9154 1.61259 33.8581 1.61259C33.1206 1.61259 32.6225 1.57395 31.9755 1.42796C31.9451 1.42097 31.9114 1.41207 31.8784 1.40334L31.8784 1.40332C31.8506 1.39598 31.8233 1.38876 31.7987 1.38288C31.7963 1.38234 31.7907 1.38008 31.7829 1.37688C31.7288 1.35473 31.5639 1.28729 31.5356 1.42796H31.5335ZM32.5543 2.41437C32.554 2.41329 32.5537 2.41221 32.5534 2.41113V2.41328C32.5537 2.41364 32.554 2.41401 32.5543 2.41437ZM32.5543 2.41437C32.8879 3.64356 33.0343 4.93916 32.9567 6.27334C32.7906 9.16946 31.7124 11.7564 29.8665 13.7895C29.7587 15.1721 29.6724 16.5804 29.6099 18.0124C31.6003 16.6019 32.933 14.7406 33.8301 12.6173C34.1729 11.6963 34.3843 10.7238 34.4425 9.71047C34.5956 7.0338 34.2421 4.50521 32.5543 2.41437Z" fill="#F6F6F6"/>
</g>
<g clip-path="url(#clip1_521_174)">
<path d="M63.9964 53.0287L64.5725 54.6225H63.4055L63.9964 53.0287ZM62.1953 55.9477H63.4621V55.8164C63.1867 55.8164 63.0721 55.7691 63.0721 55.6058C63.0721 55.537 63.0929 55.4683 63.1182 55.4058L63.3162 54.8668H64.6603L64.8672 55.4363C64.8925 55.4989 64.9089 55.5676 64.9089 55.6317C64.9089 55.7951 64.7228 55.8164 64.5204 55.8164V55.9477H66V55.8164C65.6368 55.8164 65.5177 55.7218 65.3718 55.3309L64.3135 52.4332H63.8878L62.8443 55.2622C62.6836 55.7004 62.554 55.8164 62.1953 55.8164V55.9477ZM60.7276 55.9477H62.1804V55.8164C61.8172 55.8164 61.7398 55.737 61.7398 55.3248V53.0561C61.7398 52.6439 61.8172 52.5661 62.1804 52.5661V52.4348H60.7276V52.5661C61.0953 52.5661 61.1682 52.6454 61.1682 53.0561V55.3248C61.1682 55.737 61.0953 55.8164 60.7276 55.8164V55.9477ZM57.5987 55.9477H59.0515V55.8164C58.6824 55.8164 58.6109 55.737 58.6109 55.3248V54.3111H58.928L59.8419 55.9462H60.6353V55.8149C60.3659 55.8149 60.287 55.6775 60.101 55.3447L59.4832 54.2317C59.8985 54.1416 60.2677 53.989 60.2677 53.3187C60.2677 52.6485 59.5561 52.4317 58.9384 52.4317H57.5987V52.563C57.9679 52.563 58.0393 52.6424 58.0393 53.0531V55.3218C58.0393 55.734 57.9664 55.8134 57.5987 55.8134V55.9447V55.9477ZM58.6094 53.0561C58.6094 52.7554 58.6407 52.676 58.9369 52.676C59.3522 52.676 59.6737 52.8241 59.6737 53.389C59.6737 53.8699 59.3939 54.0699 58.9265 54.0699H58.6094V53.0561ZM54.4475 55.9477H55.9003C56.393 55.9477 57.2757 55.9004 57.2757 55.0134C57.2757 54.3432 56.8396 54.1584 56.4764 54.0851V54.0745C56.7309 53.9905 57.109 53.7951 57.109 53.2775C57.109 52.5859 56.4764 52.4332 55.9003 52.4332H54.4475V52.5645C54.8152 52.5645 54.8881 52.6439 54.8881 53.0546V55.3233C54.8881 55.7355 54.8152 55.8149 54.4475 55.8149V55.9462V55.9477ZM55.4597 54.2103H55.7812C56.2069 54.2103 56.6848 54.279 56.6848 54.9019C56.6848 55.4409 56.4511 55.7035 55.9018 55.7035C55.482 55.7035 55.4612 55.6454 55.4612 55.3233V54.2103H55.4597ZM55.4597 53.0561C55.4597 52.6974 55.5326 52.676 55.9003 52.676C56.3097 52.676 56.5181 52.8607 56.5181 53.3141C56.5181 53.7676 56.2799 53.9691 55.7812 53.9691H55.4597V53.0561ZM52.4499 53.0287L53.026 54.6225H51.859L52.4499 53.0287ZM50.6488 55.9477H51.9155V55.8164C51.6401 55.8164 51.5255 55.7691 51.5255 55.6058C51.5255 55.537 51.5464 55.4683 51.5717 55.4058L51.7696 54.8668H53.1138L53.3207 55.4363C53.346 55.4989 53.3624 55.5676 53.3624 55.6317C53.3624 55.7951 53.1763 55.8164 52.9724 55.8164V55.9477H54.452V55.8164C54.0888 55.8164 53.9697 55.7218 53.8238 55.3309L52.7655 52.4332H52.3397L51.2963 55.2622C51.1355 55.7004 51.006 55.8164 50.6473 55.8164V55.9477H50.6488ZM48.8432 55.9477H50.296V55.8164C49.9328 55.8164 49.8554 55.737 49.8554 55.3248V52.676H50.0534C50.5982 52.676 50.7172 52.8607 50.7693 53.2516H50.9197L50.8944 52.4332H48.2522L48.221 53.2516H48.3713C48.4279 52.8668 48.538 52.676 49.0828 52.676H49.2853V55.3248C49.2853 55.737 49.2079 55.8164 48.8447 55.8164V55.9477H48.8432ZM44.8152 55.9477H46.0239V55.8164C45.6562 55.8164 45.5833 55.737 45.5833 55.3248V52.9661H45.5937L47.3011 55.9477H47.7938V53.0561C47.7938 52.6439 47.8608 52.5661 48.2344 52.5661V52.4348H47.0257V52.5661C47.3889 52.5661 47.4663 52.6454 47.4663 53.0561V55.2668H47.4559L45.8319 52.4332H44.8152V52.5645C45.1784 52.5645 45.2558 52.6439 45.2558 53.0546V55.3233C45.2558 55.7355 45.1784 55.8149 44.8152 55.8149V55.9462V55.9477ZM42.828 53.0287L43.4041 54.6225H42.2371L42.828 53.0287ZM41.0269 55.9477H42.2936V55.8164C42.0183 55.8164 41.9037 55.7691 41.9037 55.6058C41.9037 55.537 41.9245 55.4683 41.9498 55.4058L42.1478 54.8668H43.4919L43.7003 55.4363C43.7256 55.4989 43.742 55.5676 43.742 55.6317C43.742 55.7951 43.5544 55.8164 43.352 55.8164V55.9477H44.8316V55.8164C44.4684 55.8164 44.3493 55.7218 44.2034 55.3309L43.1451 52.4332H42.7194L41.6759 55.2622C41.5151 55.7004 41.3856 55.8164 41.0269 55.8164V55.9477ZM40.9034 55.4348C40.7426 55.5462 40.4881 55.7035 39.9954 55.7035C39.2734 55.7035 38.9891 54.9538 38.9891 54.1203C38.9891 53.4607 39.1141 52.6317 39.8763 52.6317C40.436 52.6317 40.7218 53.1493 40.7426 53.418H40.8929L40.8617 52.537C40.6235 52.4577 40.2856 52.3783 39.8242 52.3783C38.6676 52.3783 38.3758 53.1599 38.3758 54.1203C38.3758 55.308 38.7807 55.9996 39.9075 55.9996C40.4419 55.9996 40.7277 55.879 40.9034 55.7996V55.4363V55.4348ZM33.6795 55.9477H36.207L36.2383 55.1828H36.088C36.0716 55.5157 35.9272 55.705 35.4806 55.705H35.0028C34.7334 55.705 34.6917 55.679 34.6917 55.3248V54.2332H35.372C35.7099 54.2332 35.762 54.3432 35.762 54.6607H35.9019V53.5676H35.762C35.762 53.9157 35.7099 53.9905 35.372 53.9905H34.6917V53.0561C34.6917 52.7599 34.7483 52.676 35.0028 52.676H35.3348C35.9153 52.676 35.9838 52.9126 36.0046 53.1981H36.1549L36.1237 52.4332H33.6795V52.5645C34.0427 52.5645 34.1201 52.6439 34.1201 53.0546V55.3233C34.1201 55.7355 34.0427 55.8149 33.6795 55.8149V55.9462V55.9477ZM31.3083 53.0561C31.3083 52.7294 31.3648 52.676 31.6402 52.676C32.6152 52.676 32.7254 53.2088 32.7254 54.1798C32.7254 55.2348 32.5333 55.705 31.6402 55.705C31.3232 55.705 31.3083 55.589 31.3083 55.3248V53.0561ZM30.2961 55.9477H31.6402C32.642 55.9477 33.3372 55.705 33.3372 54.1798C33.3372 52.6546 32.6256 52.4332 31.6402 52.4332H30.2961V52.5645C30.6637 52.5645 30.7367 52.6439 30.7367 53.0546V55.3233C30.7367 55.7355 30.6637 55.8149 30.2961 55.8149V55.9462V55.9477ZM26.6626 53.0287L27.2386 54.6225H26.0701L26.6626 53.0287ZM24.8629 55.9477H26.1297V55.8164C25.8543 55.8164 25.7397 55.7691 25.7397 55.6058C25.7397 55.537 25.7605 55.4683 25.7858 55.4058L25.9823 54.8668H27.3265L27.5334 55.4363C27.5587 55.4989 27.575 55.5676 27.575 55.6317C27.575 55.7951 27.389 55.8164 27.1851 55.8164V55.9477H28.6647V55.8164C28.3015 55.8164 28.1824 55.7218 28.0365 55.3309L26.9781 52.4332H26.5524L25.509 55.2622C25.3482 55.7004 25.2187 55.8164 24.86 55.8164V55.9477H24.8629ZM23.3938 55.9477H24.8466V55.8164C24.4834 55.8164 24.406 55.737 24.406 55.3248V53.0561C24.406 52.6439 24.4834 52.5661 24.8466 52.5661V52.4348H23.3938V52.5661C23.7629 52.5661 23.8344 52.6454 23.8344 53.0561V55.3248C23.8344 55.737 23.7614 55.8164 23.3938 55.8164V55.9477ZM24.0576 52.0103H24.275L24.6024 51.4622C24.6486 51.389 24.6799 51.3309 24.6799 51.2668C24.6799 51.1401 24.5712 51.0928 24.4462 51.0928C24.2437 51.0928 24.2184 51.2302 24.1767 51.4409L24.0576 52.0103ZM22.8445 54.5966C22.8445 54.1844 22.9115 54.1065 23.2538 54.1065V53.9752H21.8636V54.1065C22.2059 54.1065 22.2729 54.1859 22.2729 54.5966V55.6622C22.1226 55.705 21.9618 55.7462 21.801 55.7462C20.9392 55.7462 20.7159 55.1019 20.7159 54.1783C20.7159 53.4821 20.8037 52.6317 21.5882 52.6317C22.2893 52.6317 22.4649 53.1019 22.5483 53.3661H22.6986L22.6674 52.5325C22.4292 52.4531 22.0556 52.3798 21.5673 52.3798C20.4048 52.3798 20.1041 53.108 20.1041 54.1951C20.1041 55.0073 20.3899 55.9996 21.5673 55.9996C22.2312 55.9996 22.5483 55.8836 22.8445 55.7829V54.5951V54.5966ZM17.3488 54.1905C17.3488 53.3676 17.4575 52.6332 18.1526 52.6332C18.8478 52.6332 18.9564 53.3676 18.9564 54.1905C18.9564 55.0134 18.8418 55.7477 18.1526 55.7477C17.4635 55.7477 17.3488 55.0195 17.3488 54.1905ZM18.1526 55.9996C19.2378 55.9996 19.5697 55.3141 19.5697 54.189C19.5697 53.0638 19.2378 52.3783 18.1526 52.3783C17.0675 52.3783 16.7356 53.0638 16.7356 54.189C16.7356 55.3141 17.0735 55.9996 18.1526 55.9996ZM13.7525 55.9477H16.2637L16.295 55.1141H16.1446C16.0568 55.5264 15.9109 55.705 15.4956 55.705H15.1116C14.8109 55.705 14.7633 55.6256 14.7633 55.3248V53.0561C14.7633 52.6439 14.8407 52.5661 15.2039 52.5661V52.4348H13.7511V52.5661C14.1143 52.5661 14.1917 52.6454 14.1917 53.0561V55.3248C14.1917 55.737 14.1143 55.8164 13.7511 55.8164V55.9477H13.7525ZM11.1878 54.1905C11.1878 53.3676 11.2965 52.6332 11.9916 52.6332C12.6868 52.6332 12.7954 53.3676 12.7954 54.1905C12.7954 55.0134 12.6808 55.7477 11.9916 55.7477C11.3024 55.7477 11.1878 55.0195 11.1878 54.1905ZM11.9931 55.9996C13.0782 55.9996 13.4102 55.3141 13.4102 54.189C13.4102 53.0638 13.0782 52.3783 11.9931 52.3783C10.908 52.3783 10.576 53.0638 10.576 54.189C10.576 55.3141 10.9139 55.9996 11.9931 55.9996ZM10.1146 55.4348C9.95381 55.5462 9.69927 55.7035 9.20657 55.7035C8.48463 55.7035 8.20032 54.9538 8.20032 54.1203C8.20032 53.4607 8.32536 52.6317 9.08749 52.6317C9.64717 52.6317 9.93297 53.1493 9.95381 53.418H10.1042L10.0729 52.537C9.83473 52.4577 9.49683 52.3783 9.03539 52.3783C7.8788 52.3783 7.58705 53.1599 7.58705 54.1203C7.58705 55.308 7.99193 55.9996 9.11726 55.9996C9.65164 55.9996 9.93744 55.879 10.1131 55.7996V55.4363L10.1146 55.4348ZM5.78592 55.9477H7.23873V55.8164C6.87553 55.8164 6.79812 55.737 6.79812 55.3248V53.0561C6.79812 52.6439 6.87553 52.5661 7.23873 52.5661V52.4348H5.78592V52.5661C6.15508 52.5661 6.22653 52.6454 6.22653 53.0561V55.3248C6.22653 55.737 6.15359 55.8164 5.78592 55.8164V55.9477ZM5.25154 53.2928L5.22028 52.4745C5.06547 52.4485 4.72162 52.3798 4.37479 52.3798C3.61713 52.3798 3.18695 52.7065 3.18695 53.2775C3.18695 53.6989 3.44148 53.9523 3.75259 54.1584C4.23041 54.4699 4.83773 54.6592 4.83773 55.1767C4.83773 55.4989 4.58319 55.7462 4.13216 55.7462C3.4519 55.7462 3.33282 55.2561 3.2703 54.9859H3.11996L3.15122 55.8561C3.32836 55.9035 3.66476 55.9981 4.0756 55.9981C4.86452 55.9981 5.43016 55.7233 5.43016 54.9798C5.43016 54.621 5.24856 54.389 4.99402 54.189C4.60552 53.8836 3.72282 53.6409 3.72282 53.1233C3.72282 52.8485 3.95652 52.6332 4.37628 52.6332C4.92704 52.6332 5.06101 53.0088 5.10269 53.2928H5.25303H5.25154ZM1.0122 53.0561C1.0122 52.7401 1.05388 52.676 1.32926 52.676C1.77582 52.676 2.07055 52.7767 2.07055 53.3996C2.07055 54.1172 1.63441 54.1493 1.1938 54.1493H1.0122V53.0577V53.0561ZM0 55.9477H1.45281V55.8164C1.08961 55.8164 1.0122 55.737 1.0122 55.3248V54.3905H1.20422C1.8428 54.3905 2.66298 54.337 2.66298 53.3981C2.66298 52.6699 2.1286 52.4317 1.46918 52.4317H0V52.563C0.363202 52.563 0.440605 52.6424 0.440605 53.0531V55.3218C0.440605 55.734 0.363202 55.8134 0 55.8134V55.9447V55.9477Z" fill="#F6F6F6"/>
<path d="M56.7785 50.029H58.925L58.9518 49.3786H58.8238C58.8104 49.6611 58.6868 49.8229 58.3088 49.8229H57.9039C57.6746 49.8229 57.6389 49.8 57.6389 49.5008V48.5725H58.2165C58.5023 48.5725 58.5469 48.6672 58.5469 48.9359H58.666V48.0076H58.5469C58.5469 48.3038 58.5023 48.3664 58.2165 48.3664H57.6389V47.574C57.6389 47.3237 57.688 47.2519 57.9039 47.2519H58.1852C58.6794 47.2519 58.736 47.4534 58.7538 47.6962H58.8818L58.855 47.0458H56.7785V47.1573C57.0867 47.1573 57.1537 47.2244 57.1537 47.574V49.5008C57.1537 49.8504 57.0882 49.9176 56.7785 49.9176V50.029ZM54.7646 47.574C54.7646 47.2962 54.8137 47.2519 55.0459 47.2519C55.875 47.2519 55.9673 47.7038 55.9673 48.5298C55.9673 49.426 55.8036 49.8244 55.0459 49.8244C54.7765 49.8244 54.7646 49.7252 54.7646 49.5023V47.574ZM53.9057 50.029H55.0474C55.8973 50.029 56.4883 49.8229 56.4883 48.5282C56.4883 47.2336 55.8839 47.0443 55.0474 47.0443H53.9057V47.1557C54.2183 47.1557 54.2808 47.2229 54.2808 47.5725V49.4992C54.2808 49.8489 54.2198 49.916 53.9057 49.916V50.0275V50.029ZM50.1501 50.029H52.2832L52.31 49.3206H52.182C52.1075 49.6702 51.984 49.8229 51.6312 49.8229H51.3052C51.0492 49.8229 51.0105 49.7557 51.0105 49.5008V47.574C51.0105 47.2244 51.076 47.1573 51.3856 47.1573V47.0443H50.1516V47.1557C50.4597 47.1557 50.5267 47.2229 50.5267 47.5725V49.4992C50.5267 49.8489 50.4612 49.916 50.1516 49.916V50.0275L50.1501 50.029ZM48.4487 47.5511L48.9384 48.9053H47.9471L48.4487 47.5511ZM46.92 50.029H47.9947V49.9176C47.761 49.9176 47.6643 49.8779 47.6643 49.7389C47.6643 49.6809 47.6821 49.6229 47.7045 49.5679L47.8712 49.1115H49.0129L49.1885 49.5954C49.2109 49.6489 49.2243 49.7069 49.2243 49.7618C49.2243 49.9008 49.065 49.9191 48.8938 49.9191V50.0305H50.1501V49.9191C49.842 49.9191 49.7408 49.8382 49.6172 49.5069L48.7182 47.0458H48.3564L47.4708 49.4473C47.3338 49.8198 47.2237 49.9176 46.92 49.9176V50.029ZM45.6726 50.029H46.9066V49.9176C46.5985 49.9176 46.5315 49.8504 46.5315 49.5008V47.574C46.5315 47.2244 46.597 47.1573 46.9066 47.1573V47.0443H45.6726V47.1557C45.9852 47.1557 46.0477 47.2229 46.0477 47.5725V49.4992C46.0477 49.8489 45.9867 49.916 45.6726 49.916V50.0275V50.029ZM45.4255 49.5954C45.2886 49.6901 45.0727 49.8244 44.6545 49.8244C44.0427 49.8244 43.8 49.1878 43.8 48.4794C43.8 47.9191 43.9057 47.2153 44.5532 47.2153C45.0296 47.2153 45.2722 47.655 45.2901 47.8824H45.4181L45.3913 47.1344C45.1888 47.0672 44.9016 47 44.5101 47C43.5276 47 43.2805 47.6626 43.2805 48.4794C43.2805 49.4885 43.6244 50.0748 44.58 50.0748C45.034 50.0748 45.2767 49.971 45.4255 49.9038V49.5954ZM41.7503 50.029H42.9843V49.9176C42.6762 49.9176 42.6092 49.8504 42.6092 49.5008V47.574C42.6092 47.2244 42.6747 47.1573 42.9843 47.1573V47.0443H41.7503V47.1557C42.0629 47.1557 42.1254 47.2229 42.1254 47.5725V49.4992C42.1254 49.8489 42.0644 49.916 41.7503 49.916V50.0275V50.029ZM39.4357 50.029H40.6697V49.9176C40.3615 49.9176 40.2946 49.8504 40.2946 49.5008V48.5725H40.8721C41.1579 48.5725 41.2026 48.6672 41.2026 48.9359H41.3216V48.0076H41.2026C41.2026 48.3038 41.1579 48.3664 40.8721 48.3664H40.2946V47.574C40.2946 47.3237 40.3392 47.2519 40.555 47.2519H40.8408C41.2948 47.2519 41.3469 47.4534 41.3648 47.6962H41.4928L41.466 47.0458H39.4342V47.1573C39.7423 47.1573 39.8093 47.2244 39.8093 47.574V49.5008C39.8093 49.8504 39.7438 49.9176 39.4342 49.9176V50.029H39.4357ZM37.2684 48.5374C37.2684 47.8382 37.3607 47.2153 37.9516 47.2153C38.5425 47.2153 38.6348 47.8382 38.6348 48.5374C38.6348 49.2366 38.5381 49.8595 37.9516 49.8595C37.3651 49.8595 37.2684 49.2412 37.2684 48.5374ZM37.9516 50.0748C38.873 50.0748 39.1543 49.4916 39.1543 48.5374C39.1543 47.5832 38.8715 47 37.9516 47C37.0317 47 36.7489 47.5832 36.7489 48.5374C36.7489 49.4916 37.0347 50.0748 37.9516 50.0748ZM33.0201 48.5374C33.0201 47.8382 33.1124 47.2153 33.7033 47.2153C34.2943 47.2153 34.3866 47.8382 34.3866 48.5374C34.3866 49.2366 34.2898 49.8595 33.7033 49.8595C33.1168 49.8595 33.0201 49.2412 33.0201 48.5374ZM33.7033 50.0748C34.6247 50.0748 34.9061 49.4916 34.9061 48.5374C34.9061 47.5832 34.6232 47 33.7033 47C32.7834 47 32.5006 47.5832 32.5006 48.5374C32.5006 49.4916 32.7864 50.0748 33.7033 50.0748ZM30.9659 50.029H32.1999V49.9176C31.8918 49.9176 31.8248 49.8504 31.8248 49.5008V47.574C31.8248 47.2244 31.8918 47.1573 32.1999 47.1573V47.0443H30.9659V47.1557C31.2785 47.1557 31.341 47.2229 31.341 47.5725V49.4992C31.341 49.8489 31.2785 49.916 30.9659 49.916V50.0275V50.029ZM30.4985 48.8824C30.4985 48.5328 30.5566 48.4656 30.8468 48.4656V48.3542H29.6664V48.4656C29.9567 48.4656 30.0147 48.5328 30.0147 48.8824V49.7878C29.8867 49.8244 29.7498 49.8595 29.6143 49.8595C28.882 49.8595 28.6929 49.313 28.6929 48.5282C28.6929 47.9374 28.7674 47.2153 29.4327 47.2153C30.0281 47.2153 30.177 47.6137 30.2484 47.8382H30.3765L30.3497 47.1298C30.1472 47.0626 29.8302 47 29.4149 47C28.428 47 28.1719 47.6183 28.1719 48.542C28.1719 49.2321 28.4146 50.0748 29.4149 50.0748C29.979 50.0748 30.2484 49.9756 30.4985 49.8916V48.884V48.8824ZM25.567 50.029H27.7135L27.7403 49.3786H27.6123C27.5989 49.6611 27.4753 49.8229 27.0972 49.8229H26.6923C26.4631 49.8229 26.4274 49.8 26.4274 49.5008V48.5725H27.0049C27.2907 48.5725 27.3354 48.6672 27.3354 48.9359H27.4545V48.0076H27.3354C27.3354 48.3038 27.2907 48.3664 27.0049 48.3664H26.4274V47.574C26.4274 47.3237 26.4765 47.2519 26.6923 47.2519H26.9737C27.4679 47.2519 27.5244 47.4534 27.5423 47.6962H27.6703L27.6435 47.0458H25.5685V47.1573C25.8766 47.1573 25.9436 47.2244 25.9436 47.574V49.5008C25.9436 49.8504 25.8781 49.9176 25.5685 49.9176V50.029H25.567ZM23.1869 50.029H25.3199L25.3467 49.3206H25.2187C25.1443 49.6702 25.0207 49.8229 24.6679 49.8229H24.342C24.0859 49.8229 24.0472 49.7557 24.0472 49.5008V47.574C24.0472 47.2244 24.1127 47.1573 24.4223 47.1573V47.0443H23.1883V47.1557C23.4965 47.1557 23.5635 47.2229 23.5635 47.5725V49.4992C23.5635 49.8489 23.498 49.916 23.1883 49.916V50.0275L23.1869 50.029ZM21.0106 48.5374C21.0106 47.8382 21.1029 47.2153 21.6939 47.2153C22.2848 47.2153 22.3771 47.8382 22.3771 48.5374C22.3771 49.2366 22.2803 49.8595 21.6939 49.8595C21.1074 49.8595 21.0106 49.2412 21.0106 48.5374ZM21.6939 50.0748C22.6153 50.0748 22.8966 49.4916 22.8966 48.5374C22.8966 47.5832 22.6138 47 21.6939 47C20.7739 47 20.4911 47.5832 20.4911 48.5374C20.4911 49.4916 20.7769 50.0748 21.6939 50.0748ZM20.0982 49.5954C19.9612 49.6901 19.7454 49.8244 19.3271 49.8244C18.7138 49.8244 18.4727 49.1878 18.4727 48.4794C18.4727 47.9191 18.5784 47.2153 19.2259 47.2153C19.7022 47.2153 19.9448 47.655 19.9612 47.8824H20.0892L20.0624 47.1344C19.86 47.0672 19.5727 47 19.1812 47C18.1988 47 17.9517 47.6626 17.9517 48.4794C17.9517 49.4885 18.2955 50.0748 19.2527 50.0748C19.7067 50.0748 19.9493 49.971 20.0982 49.9038V49.5954ZM13.9639 50.029H16.1104L16.1372 49.3786H16.0092C15.9958 49.6611 15.8722 49.8229 15.4941 49.8229H15.0892C14.86 49.8229 14.8243 49.8 14.8243 49.5008V48.5725H15.4018C15.6876 48.5725 15.7323 48.6672 15.7323 48.9359H15.8514V48.0076H15.7323C15.7323 48.3038 15.6876 48.3664 15.4018 48.3664H14.8243V47.574C14.8243 47.3237 14.8734 47.2519 15.0892 47.2519H15.3706C15.8648 47.2519 15.9213 47.4534 15.9392 47.6962H16.0672L16.0404 47.0458H13.9639V47.1573C14.272 47.1573 14.339 47.2244 14.339 47.574V49.5008C14.339 49.8504 14.2735 49.9176 13.9639 49.9176V50.029ZM11.3143 50.029H12.5483V49.9176C12.2357 49.9176 12.1732 49.8504 12.1732 49.5008V48.6397H12.4426L13.2182 50.029H13.8925V49.9176C13.6632 49.9176 13.5977 49.8015 13.4385 49.5191L12.9145 48.574C13.2673 48.4977 13.5799 48.3679 13.5799 47.7985C13.5799 47.229 12.9755 47.0458 12.4516 47.0458H11.3143V47.1573C11.6269 47.1573 11.6894 47.2244 11.6894 47.574V49.5008C11.6894 49.8504 11.6284 49.9176 11.3143 49.9176V50.029ZM12.1732 47.574C12.1732 47.3191 12.2 47.2519 12.4516 47.2519C12.8043 47.2519 13.0767 47.3771 13.0767 47.8565C13.0767 48.2641 12.8386 48.4351 12.4426 48.4351H12.1732V47.574ZM9.52065 50.029H10.7546V49.9176C10.4465 49.9176 10.3795 49.8504 10.3795 49.5008V47.2504H10.5462C11.0092 47.2504 11.1104 47.4076 11.1551 47.7389H11.2831L11.2607 47.0443H9.01752L8.99073 47.7389H9.11874C9.16787 47.4122 9.26015 47.2504 9.72309 47.2504H9.89427V49.5008C9.89427 49.8504 9.82877 49.9176 9.51916 49.9176V50.029H9.52065ZM8.61711 47.7756L8.59031 47.0809C8.45784 47.058 8.16757 47 7.87136 47C7.22831 47 6.86213 47.2779 6.86213 47.7618C6.86213 48.1206 7.07797 48.3359 7.34293 48.5099C7.74781 48.774 8.26433 48.9359 8.26433 49.374C8.26433 49.6473 8.04849 49.858 7.66445 49.858C7.0869 49.858 6.98568 49.4412 6.93358 49.2122H6.80557L6.83236 49.9511C6.9827 49.9908 7.2685 50.0718 7.61682 50.0718C8.28665 50.0718 8.76745 49.8382 8.76745 49.2061C8.76745 48.9008 8.61264 48.7038 8.39681 48.5344C8.06635 48.2748 7.31762 48.0687 7.31762 47.629C7.31762 47.3954 7.5156 47.2122 7.87284 47.2122C8.34024 47.2122 8.45486 47.5298 8.48909 47.7725H8.61711V47.7756ZM6.17145 47.574C6.17145 47.2244 6.23695 47.1573 6.54656 47.1573V47.0443H5.47631V47.1557C5.78443 47.1557 5.85142 47.2229 5.85142 47.5725V49.0687C5.85142 49.629 5.69214 49.8672 5.16818 49.8672C4.61742 49.8672 4.53853 49.5176 4.53853 49.0687V47.574C4.53853 47.2244 4.60403 47.1573 4.91364 47.1573V47.0443H3.67965V47.1557C3.98778 47.1557 4.05476 47.2229 4.05476 47.5725V49.0687C4.05476 49.7237 4.34502 50.0733 5.11311 50.0733C6.02111 50.0733 6.17592 49.5756 6.17592 49.0687V47.574H6.17145ZM1.37243 50.029H3.50549L3.53229 49.3206H3.40427C3.32985 49.6702 3.2063 49.8229 2.85351 49.8229H2.52753C2.2715 49.8229 2.2328 49.7557 2.2328 49.5008V47.574C2.2328 47.2244 2.29829 47.1573 2.60791 47.1573V47.0443H1.37391V47.1557C1.68204 47.1557 1.74902 47.2229 1.74902 47.5725V49.4992C1.74902 49.8489 1.68353 49.916 1.37391 49.916V50.0275L1.37243 50.029ZM0 50.029H1.23399V49.9176C0.925867 49.9176 0.858883 49.8504 0.858883 49.5008V47.574C0.858883 47.2244 0.924378 47.1573 1.23399 47.1573V47.0443H0V47.1557C0.312592 47.1557 0.37511 47.2229 0.37511 47.5725V49.4992C0.37511 49.8489 0.312592 49.916 0 49.916V50.0275V50.029Z" fill="#F6F6F6"/>
</g>
<defs>
<clipPath id="clip0_521_174">
<rect width="36" height="44" fill="white" transform="translate(15)"/>
</clipPath>
<clipPath id="clip1_521_174">
<rect width="66" height="9" fill="white" transform="translate(0 47)"/>
</clipPath>
</defs>
</svg>
